# xmcd CD database file generated by OrangeCD 6.4
#
# Track frame offsets:
#	150
#	12881
#	27283
#	40814
#	53195
#	66811
#	80040
#	92315
#	106660
#	120098
#	133277
#	146533
#	159876
#	171053
#	185679
#	197256
#	210536
#	225342
#	235325
#	243931
#	256631
#	269343
#	277015
#	287362
#	292414
#	315942
#	323127
#
# Disc length: 4425 seconds
#
# Revision: 0
# Processed by: cddbd v1.5.2PL0 Copyright (c) Steve Scherf et al.
# Submitted via: OrangeCD 6.4
#
DISCID=6911471b
DTITLE=Various Artist - Dust-to-Digital 2006 Sampler
DYEAR=2006
DGENRE=
TTITLE0=Ted Lewis And His Band - Millenberg Joys
TTITLE1=Sam Morgan's Jazz Band - Down By The Riverside
TTITLE2=Fletcher Henderson And His Orchestra - Chinatown, My Chinatown
TTITLE3=Wilmouth Houdini - Tiger Tom Kill Tiger Cat, Damblay, Santapie And Rat
TTITLE4=Harlem Hot Shots - Who's Sorry Now?
TTITLE5=Milton Brown And His Musical Brownies - Brownie's Stomp
TTITLE6=Andy Iona And His Islanders - Ta-hu-wa-hu-wa (A Hawaiian War Song)
TTITLE7=Washboard Sam - Don't Low
TTITLE8=Junie C. Cobb And His Grains Of Corn - Shake That Jelly Roll
TTITLE9=Rev. D. C. Rice And His Sanctified Congregation - He's Got His Eyes On 
TTITLE9=You
TTITLE10=Cotton Top Mountain Sanctified Singers - She's Coming 'round The Mount
TTITLE10=ain
TTITLE11=Bill Johnson's Louisiana Jug Band - Get The "L" On Down The Road
TTITLE12=Jimmy Murphy - We Live A Long Time To Get Old
TTITLE13=Joe Hill Louis - When I'm Gone
TTITLE14=Blind Willie Mctell - Statesboro Blues
TTITLE15=Clarence Ashley - The Coo-coo Bird
TTITLE16=Blind Willie Johnson - Dark Was The Night
TTITLE17=Henagar-union Convention - Antioch
TTITLE18=Henagar-union Convention - Invocation
TTITLE19=S. Whitt Denson - New Morning Sun
TTITLE20=Huggins and Phillip Sacred Harp Singers - Blooming Youth
TTITLE21=Henagar-union Convention - Marlborough
TTITLE22=Rev. Willie Mae Eberhard And Sister Fleeta Mitchell - Satan Your Kingd
TTITLE22=om Must Come Down
TTITLE23=Rev. Howard Finster - Five To My Five
TTITLE24=Cecil Barfield - Georgia Blues
TTITLE25=Lawrence And Vaughn Elleer - Fly Around My Blue-eyed Gal
TTITLE26=Henry Grady - Old John Henry Died On The Mountain
EXTD=
EXTT0=
EXTT1=
EXTT2=
EXTT3=
EXTT4=
EXTT5=
EXTT6=
EXTT7=
EXTT8=
EXTT9=
EXTT10=
EXTT11=
EXTT12=
EXTT13=
EXTT14=
EXTT15=
EXTT16=
EXTT17=
EXTT18=
EXTT19=
EXTT20=
EXTT21=
EXTT22=
EXTT23=
EXTT24=
EXTT25=
EXTT26=
PLAYORDER=
